<mxfile host="app.diagrams.net" modified="2023-08-28T15:54:53.992Z" agent="Mozilla/5.0 (Windows NT 10.0; Win64; x64) AppleWebKit/537.36 (KHTML, like Gecko) Chrome/115.0.0.0 Safari/537.36" version="21.5.2" etag="GVXjMq7h_n6mO_Jqt-eu" type="github">
  <diagram name="Страница 1" id="KM_k_rFMm2Z6fUSp3m3o">
    <mxGraphModel>
      <root>
        <mxCell id="0" />
        <mxCell id="1" parent="0" />
      </root>
    </mxGraphModel>
  </diagram>
</mxfile>
